<?xml version="1.0" encoding="UTF-8"?>
<!DOCTYPE svg PUBLIC "-//W3C//DTD SVG 1.1//EN" "http://www.w3.org/Graphics/SVG/1.1/DTD/svg11.dtd">
<svg version="1.1" id="Mode_Isolation" xmlns="http://www.w3.org/2000/svg" xmlns:xlink="http://www.w3.org/1999/xlink" x="0px" y="0px" viewBox="0 0 353.064 248.822" enable-background="new 0 0 353.064 248.822" xml:space="preserve">
	<path fill="#58585A" d="M330.034,38.714h-16.69V13.296c0-7.323-5.086-13.259-11.349-13.259H185.703   c-6.269,0-11.349,5.936-11.349,13.259v25.418H82.495V20.53H34.512v18.184H23.031C10.311,38.714,0,49.027,0,61.744v164.084   c0,12.721,10.311,23.031,23.031,23.031h307.003c12.72,0,23.03-10.311,23.03-23.031V61.744   C353.064,49.027,342.753,38.714,330.034,38.714z M176.53,237.822c-51.937,0-94.035-42.099-94.035-94.036   c0-51.931,42.098-94.035,94.035-94.035c51.935,0,94.036,42.104,94.036,94.035C270.566,195.724,228.464,237.822,176.53,237.822z"/>
	<path fill="#58585A" d="M176.53,91.805c28.668,0,51.988,23.32,51.988,51.981c0,28.664-23.32,51.984-51.988,51.984   c-28.666,0-51.987-23.32-51.987-51.984C124.543,115.125,147.864,91.805,176.53,91.805 M176.53,74.927   c-38.027,0-68.862,30.831-68.862,68.859c0,38.031,30.834,68.859,68.862,68.859c38.029,0,68.863-30.828,68.863-68.859   C245.393,105.758,214.559,74.927,176.53,74.927L176.53,74.927z"/>
</svg>